<svg xmlns="http://www.w3.org/2000/svg" height="24" viewBox="0 -960 960 960" width="24">
    <path d="M 440 -82 Q 364 -90 298.5 -123.5 T 184.5 -210.5 Q 136 -264 108 -333 T 80 -480 Q 80 -571 116.5 -648 T 216 -780 H 120 V -860 H 360 V -620 H 280 V -729 Q 225 -685 192.5 -620.5 T 160 -480 Q 160 -357 240.5 -267.5 T 440 -163 V -82 Z Z M 600 -100 V -340 H 680 V -231 Q 735 -276 767.5 -340 T 800 -480 Q 800 -603 719.5 -692.5 T 520 -797 V -878 Q 672 -863 776 -750 T 880 -480 Q 880 -389 843.5 -312 T 744 -180 H 840 V -100 H 600 Z" />
</svg>